<svg xmlns="http://www.w3.org/2000/svg" viewBox="0 0 16 16"><g fill="none"><circle cx="8.05" cy="8" r="7.95" fill="#1943B0"/><path fill="#FFF" d="M12.44 5.75h-.08c-.69.5-1.33 1.1-2 1.65a8.07 8.07 0 0 0-.39.35l-.5.41-.62.5c-.46.31-.93.5-1.28.3a6.5 6.5 0 0 1-.95-.76l-1-.81-1.99-1.64h-.07a21.6 21.6 0 0 0-.03 2.75v1.33c-.04.27.01.54.15.77.15.15.36.23.57.23.47.04.96 0 1.42 0h5.8c.3.05.61-.04.84-.24a.94.94 0 0 0 .15-.67V8.48c.05-.9.04-1.82-.02-2.73zm-1.66 5.06h.58-.58zm1.65-.81v-.34.34z"/><path fill="#FFF" d="M6.26 7.22l1.17.98a.84.84 0 0 0 .62.3.68.68 0 0 0 .33-.16c.41-.31.8-.65 1.17-1 .33-.27.65-.56.97-.84l1.2-1 .06-.06-.05.05.22-.19c-.05.05-.1.1-.17.14l.37-.25s.03 0 0-.04c-.5-.23-1.18-.1-1.71-.1H5.5c-.5 0-1.16-.13-1.62.1.76.76 1.58 1.41 2.38 2.07z"/></g></svg>