<svg xmlns="http://www.w3.org/2000/svg" xmlns:xlink="http://www.w3.org/1999/xlink" viewBox="0 0 16 16"><defs><path id="a" d="M.14.01h15.74v13.51H.13z"/></defs><g fill="none" fill-rule="evenodd"><g transform="translate(0 1)"><mask id="b" fill="#fff"><use xlink:href="#a"/></mask><path fill="#00C671" fill-rule="nonzero" d="M13.58 1.44C12.3.46 10.13.08 8.56.02 5.45-.1 2 .98.74 3.72a6.72 6.72 0 0 0 1.36 7.52l.08.06c-.3.58-.81 1.3-1.62 1.67-.27.12-.21.48.09.52 1.39.2 2.34-.63 3.48-.76.76-.08 1.56.13 2.31.16l2.63.1c2.8.12 6.06-2.14 6.68-5.2a6.72 6.72 0 0 0-1.79-6.02 3.42 3.42 0 0 0-.38-.33" mask="url(#b)"/></g><path fill="#FFF" fill-rule="nonzero" d="M10.72 6.64h-.03l-.03-.01c-.57 0-1.17.06-1.74 0-.76-.08-.6.08-.43-.75.14-.65.93-2.5.55-3.09-.16-.24-.37-.28-.6-.19a.39.39 0 0 0-.14.07c-.96.57-2.26 3.06-2.47 3.36-.26.38-1.4 1.5-.98 2.04.48.59 1.96-.25 2.29.28.23.4-1.22 4.8.64 3.6.9-.57 1.66-2.32 2.27-3.19.35-.49 1.68-1.72.67-2.12"/></g></svg>